<?xml version="1.0" encoding="UTF-8"?>
<svg xmlns="http://www.w3.org/2000/svg" xmlns:xlink="http://www.w3.org/1999/xlink" width="998.44pt" height="194.04pt" viewBox="0 0 998.44 194.04" version="1.1">
<defs>
<clipPath id="clip1">
  <path d="M 871 47 L 998.441406 47 L 998.441406 182 L 871 182 Z M 871 47 "/>
</clipPath>
<clipPath id="clip2">
  <path d="M 0 96 L 96 96 L 96 194.039063 L 0 194.039063 Z M 0 96 "/>
</clipPath>
<clipPath id="clip3">
  <path d="M 105 96 L 202 96 L 202 194.039063 L 105 194.039063 Z M 105 96 "/>
</clipPath>
</defs>
<g id="surface1">
<path style=" stroke:none;fill-rule:nonzero;fill:rgb(33.699036%,60.398865%,74.099731%);fill-opacity:1;" d="M 339.949219 86.484375 L 315.347656 86.484375 C 315.214844 85.246094 315.15625 84.328125 315.15625 83.738281 C 314.570313 76.207031 312.917969 71.476563 310.199219 69.546875 C 307.476563 67.613281 301.0625 66.648438 290.953125 66.648438 C 279.023438 66.648438 271.226563 67.761719 267.5625 69.988281 C 263.902344 72.214844 262.074219 76.898438 262.074219 84.035156 C 262.074219 92.484375 263.554688 97.554688 266.546875 99.257813 C 269.523438 100.957031 279.378906 102.269531 296.105469 103.183594 C 315.871094 104.300781 328.65625 107.144531 334.457031 111.730469 C 340.257813 116.3125 343.15625 125.847656 343.15625 140.3125 C 343.15625 158.128906 339.757813 169.625 332.949219 174.839844 C 326.144531 180.042969 311.132813 182.652344 287.9375 182.652344 C 267.0625 182.652344 253.210938 180.089844 246.371094 174.984375 C 239.527344 169.878906 236.113281 159.53125 236.113281 143.945313 L 236.011719 139.042969 L 260.515625 139.042969 L 260.613281 141.878906 C 260.613281 151.246094 262.230469 156.976563 265.476563 159.070313 C 268.710938 161.167969 277.5625 162.21875 292.019531 162.21875 C 303.292969 162.21875 310.492188 161.007813 313.601563 158.582031 C 316.714844 156.160156 318.269531 150.5625 318.269531 141.785156 C 318.269531 135.304688 317.085938 131.003906 314.714844 128.867188 C 312.351563 126.738281 307.242188 125.445313 299.40625 124.988281 L 285.503906 124.105469 C 264.496094 122.863281 251.085938 119.914063 245.25 115.265625 C 239.414063 110.613281 236.496094 100.632813 236.496094 85.308594 C 236.496094 69.667969 240.007813 59.230469 247.046875 54.023438 C 254.082031 48.820313 268.136719 46.214844 289.195313 46.214844 C 309.164063 46.214844 322.613281 48.605469 329.546875 53.386719 C 336.484375 58.171875 339.949219 67.496094 339.949219 81.378906 "/>
<path style=" stroke:none;fill-rule:nonzero;fill:rgb(33.699036%,60.398865%,74.099731%);fill-opacity:1;" d="M 439.300781 136.976563 L 416.355469 67.140625 L 393.796875 136.976563 Z M 445.132813 155.738281 L 387.863281 155.738281 L 379.597656 181.46875 L 352.957031 181.46875 L 397.105469 47.398438 L 434.925781 47.398438 L 479.742188 181.46875 L 453.589844 181.46875 "/>
<path style=" stroke:none;fill-rule:nonzero;fill:rgb(33.699036%,60.398865%,74.099731%);fill-opacity:1;" d="M 614.40625 47.402344 L 614.40625 181.472656 L 571.726563 181.472656 L 533.800781 107.902344 C 531.921875 104.234375 528.972656 97.820313 524.960938 88.644531 L 520.671875 79.023438 L 516.5 69.402344 L 515.527344 69.402344 L 515.914063 78.242188 L 516.203125 86.976563 L 516.402344 104.5625 L 516.402344 181.472656 L 491.222656 181.472656 L 491.222656 47.402344 L 533.902344 47.402344 L 568.421875 115.371094 C 571.464844 121.394531 574.992188 128.695313 579.011719 137.273438 L 584.070313 148.175781 L 589.125 159.171875 L 590.003906 159.171875 L 589.710938 150.535156 L 589.414063 141.878906 L 589.222656 124.601563 L 589.222656 47.402344 "/>
<path style=" stroke:none;fill-rule:nonzero;fill:rgb(33.699036%,60.398865%,74.099731%);fill-opacity:1;" d="M 738.886719 47.402344 L 738.886719 181.472656 L 713.703125 181.472656 L 713.703125 123.519531 L 651.480469 123.519531 L 651.480469 181.472656 L 626.296875 181.472656 L 626.296875 47.402344 L 651.480469 47.402344 L 651.480469 102.105469 L 713.703125 102.105469 L 713.703125 47.402344 "/>
<path style=" stroke:none;fill-rule:nonzero;fill:rgb(33.699036%,60.398865%,74.099731%);fill-opacity:1;" d="M 835.105469 47.402344 L 860.285156 47.402344 L 860.285156 136.582031 C 860.285156 155.25 856.738281 167.589844 849.640625 173.609375 C 842.542969 179.636719 828.039063 182.65625 806.128906 182.65625 C 782.996094 182.65625 767.820313 179.800781 760.621094 174.097656 C 753.429688 168.40625 749.835938 156.390625 749.835938 138.050781 L 749.835938 47.402344 L 775.015625 47.402344 L 775.015625 138.050781 C 775.015625 147.945313 776.761719 154.21875 780.265625 156.863281 C 783.769531 159.523438 792 160.847656 804.964844 160.847656 C 818.246094 160.847656 826.597656 159.5 830 156.8125 C 833.394531 154.132813 835.105469 147.554688 835.105469 137.074219 "/>
<g clip-path="url(#clip1)" clip-rule="nonzero">
<path style=" stroke:none;fill-rule:nonzero;fill:rgb(33.699036%,60.398865%,74.099731%);fill-opacity:1;" d="M 958 136.976563 L 935.050781 67.140625 L 912.5 136.976563 Z M 963.839844 155.738281 L 906.570313 155.738281 L 898.292969 181.46875 L 871.660156 181.46875 L 915.804688 47.398438 L 953.621094 47.398438 L 998.441406 181.46875 L 972.300781 181.46875 "/>
</g>
<path style=" stroke:none;fill-rule:nonzero;fill:rgb(33.699036%,60.398865%,74.099731%);fill-opacity:1;" d="M 103.03125 57.742188 C 101.917969 57.742188 101.007813 58.648438 101.007813 59.769531 L 101.007813 80.167969 L 101.015625 80.261719 C 100.828125 80.824219 100.609375 81.332031 100.359375 81.78125 L 100.300781 81.90625 C 99.21875 83.566406 97.804688 84.867188 96.117188 85.765625 C 93.746094 86.828125 91.15625 87.425781 88.410156 87.558594 C 83.148438 87.835938 78.65625 86.304688 75.042969 83.019531 C 71.472656 79.757813 69.75 75.636719 69.925781 70.734375 C 69.949219 70.070313 70.015625 69.40625 70.125 68.742188 L 70.171875 68.363281 L 70.261719 67.914063 C 70.597656 66.394531 71.265625 64.988281 72.246094 63.75 L 72.433594 63.554688 L 78.617188 61.132813 L 78.628906 61.121094 L 94.847656 54.71875 C 95.882813 54.316406 96.398438 53.140625 95.984375 52.101563 C 95.570313 51.058594 94.398438 50.546875 93.351563 50.960938 L 77.144531 57.359375 L 77.136719 57.359375 L 72.695313 59.105469 C 72.039063 59.121094 71.390625 59.105469 70.734375 59.023438 L 70.613281 59.023438 C 68.65625 58.648438 66.957031 57.820313 65.582031 56.558594 C 62.230469 53.183594 60.542969 49.066406 60.542969 44.324219 C 60.542969 39.496094 62.324219 35.3125 65.808594 31.902344 C 67.234375 30.5 68.796875 29.378906 70.46875 28.542969 C 72.027344 27.90625 73.597656 27.589844 75.140625 27.589844 C 77.550781 27.589844 79.976563 28.378906 82.371094 29.941406 L 84.148438 32.226563 L 84.148438 32.234375 L 94.507813 45.53125 C 94.910156 46.042969 95.503906 46.3125 96.109375 46.3125 C 96.542969 46.3125 96.984375 46.175781 97.351563 45.886719 C 98.230469 45.199219 98.386719 43.929688 97.703125 43.042969 L 87.339844 29.734375 L 87.335938 29.726563 L 84.402344 25.957031 C 83.769531 24.152344 83.617188 22.46875 83.945313 20.921875 C 84.183594 20.050781 84.535156 19.183594 85 18.332031 C 85.78125 16.980469 86.785156 15.695313 87.988281 14.503906 C 91.414063 11.140625 95.632813 9.425781 100.503906 9.425781 C 105.351563 9.425781 109.5625 11.140625 113 14.503906 C 114.742188 16.226563 116.066406 18.148438 116.921875 20.195313 C 117.179688 21.152344 117.316406 22.15625 117.328125 23.195313 L 117.316406 23.367188 C 117.246094 24.050781 117.136719 24.71875 116.980469 25.386719 L 114.46875 29.359375 L 106.515625 41.902344 C 105.914063 42.847656 106.191406 44.097656 107.136719 44.695313 L 108.222656 45.007813 C 108.890625 45.007813 109.554688 44.679688 109.9375 44.070313 L 117.890625 31.527344 L 117.890625 31.519531 L 120.851563 26.828125 L 121.589844 26.328125 L 121.886719 26.132813 L 121.878906 26.128906 C 123.234375 25.429688 124.683594 25.078125 126.191406 25.078125 L 126.632813 25.085938 C 130.722656 25.484375 134.324219 27.207031 137.335938 30.203125 C 140.816406 33.652344 142.578125 37.886719 142.578125 42.78125 C 142.578125 47.574219 140.890625 51.722656 137.570313 55.109375 C 135.855469 56.566406 133.738281 57.324219 131.285156 57.386719 L 125.507813 55.449219 L 125.503906 55.445313 L 112.285156 51.03125 C 111.214844 50.671875 110.074219 51.253906 109.722656 52.3125 C 109.367188 53.371094 109.945313 54.515625 111 54.871094 L 124.21875 59.285156 L 131.179688 61.621094 C 131.691406 62.023438 132.144531 62.433594 132.539063 62.871094 L 132.605469 62.925781 C 133.578125 64.066406 134.230469 65.296875 134.539063 66.589844 C 134.757813 67.667969 134.898438 68.789063 134.949219 69.921875 C 135.164063 74.863281 133.597656 79.03125 130.289063 82.300781 C 126.972656 85.589844 122.800781 87.089844 117.914063 86.78125 C 114.101563 86.535156 110.625 85.242188 107.597656 82.96875 C 106.9375 82.367188 106.351563 81.703125 105.855469 80.964844 L 105.882813 80.960938 L 105.78125 80.777344 C 105.496094 80.261719 105.253906 79.695313 105.058594 79.078125 L 105.058594 59.769531 C 105.058594 58.648438 104.144531 57.742188 103.03125 57.742188 M 134.382813 88.152344 C 138.246094 84.285156 140.070313 79.371094 139.824219 73.539063 C 139.589844 68.171875 137.652344 63.347656 134.046875 59.195313 C 137.773438 58.398438 141.132813 56.65625 144.042969 54.023438 C 148.210938 50.253906 150.324219 45.625 150.324219 40.261719 C 150.324219 34.917969 148.210938 30.292969 144.042969 26.503906 C 139.882813 22.730469 134.789063 20.816406 128.894531 20.816406 C 127.050781 20.816406 125.28125 21 123.621094 21.363281 C 122.617188 21.59375 121.640625 21.886719 120.699219 22.230469 C 120.503906 16.261719 118.484375 11.066406 114.6875 6.777344 C 110.695313 2.277344 105.8125 0.00390625 100.160156 0.00390625 C 94.5 0.00390625 89.613281 2.277344 85.632813 6.777344 C 81.636719 11.277344 79.605469 16.785156 79.605469 23.132813 L 79.605469 23.136719 C 77.9375 22.792969 76.15625 22.621094 74.316406 22.621094 C 68.128906 22.621094 62.765625 24.570313 58.398438 28.402344 C 54.011719 32.234375 51.78125 36.933594 51.78125 42.371094 C 51.78125 47.808594 54.011719 52.507813 58.398438 56.347656 C 61.484375 59.054688 65.070313 60.824219 69.070313 61.621094 L 69.066406 62.222656 C 66.382813 65.9375 64.941406 70.167969 64.78125 74.828125 C 64.585938 80.699219 66.480469 85.675781 70.410156 89.605469 C 74.046875 93.242188 78.519531 95.09375 83.683594 95.09375 C 84.125 95.09375 84.582031 95.085938 85.03125 95.054688 C 90.800781 94.746094 95.859375 92.371094 100.089844 87.992188 C 101.246094 86.769531 102.273438 85.480469 103.136719 84.160156 C 103.699219 84.878906 104.320313 85.589844 104.984375 86.273438 C 109.195313 90.65625 114.230469 93.066406 119.945313 93.421875 C 125.660156 93.800781 130.519531 92.027344 134.382813 88.152344 "/>
<g clip-path="url(#clip2)" clip-rule="nonzero">
<path style=" stroke:none;fill-rule:nonzero;fill:rgb(33.699036%,60.398865%,74.099731%);fill-opacity:1;" d="M 51.105469 139.558594 C 51.667969 140.527344 52.90625 140.855469 53.871094 140.296875 L 71.539063 130.097656 L 71.625 130.039063 C 72.203125 129.917969 72.75 129.855469 73.269531 129.851563 L 73.40625 129.832031 C 75.378906 129.949219 77.21875 130.523438 78.835938 131.535156 C 80.941406 133.058594 82.75 135 84.242188 137.304688 C 87.109375 141.730469 88.035156 146.390625 86.992188 151.148438 C 85.957031 155.882813 83.246094 159.4375 78.914063 161.730469 C 78.324219 162.046875 77.71875 162.316406 77.085938 162.554688 L 76.734375 162.695313 L 76.300781 162.84375 C 74.820313 163.320313 73.273438 163.441406 71.707031 163.21875 L 71.445313 163.144531 L 66.246094 159.007813 L 66.238281 159 L 52.582031 148.15625 C 51.714844 147.457031 50.441406 147.605469 49.742188 148.484375 C 49.050781 149.355469 49.195313 150.632813 50.074219 151.328125 L 63.71875 162.167969 L 63.722656 162.171875 L 67.457031 165.140625 C 67.800781 165.710938 68.105469 166.277344 68.367188 166.882813 L 68.425781 166.996094 C 69.085938 168.875 69.21875 170.757813 68.800781 172.585938 C 67.558594 177.171875 64.847656 180.695313 60.734375 183.066406 C 56.554688 185.476563 52.042969 186.027344 47.335938 184.710938 C 45.414063 184.179688 43.664063 183.386719 42.101563 182.351563 C 40.769531 181.324219 39.710938 180.128906 38.941406 178.785156 C 37.738281 176.703125 37.207031 174.199219 37.363281 171.347656 L 38.457031 168.671875 L 38.460938 168.667969 L 44.796875 153.042969 C 45.039063 152.441406 44.976563 151.789063 44.675781 151.265625 C 44.457031 150.886719 44.113281 150.578125 43.683594 150.40625 C 42.644531 149.984375 41.46875 150.484375 41.042969 151.519531 L 34.695313 167.148438 L 34.695313 167.15625 L 32.898438 171.585938 C 31.65625 173.035156 30.269531 174.003906 28.765625 174.488281 C 27.890625 174.722656 26.964844 174.851563 25.992188 174.882813 C 24.429688 174.875 22.820313 174.652344 21.183594 174.199219 C 16.550781 172.917969 12.96875 170.125 10.535156 165.902344 C 8.105469 161.703125 7.480469 157.207031 8.683594 152.542969 C 9.300781 150.171875 10.300781 148.066406 11.648438 146.296875 C 12.347656 145.601563 13.144531 144.976563 14.046875 144.445313 L 14.195313 144.371094 C 14.828125 144.085938 15.457031 143.851563 16.113281 143.660156 L 20.804688 143.84375 L 35.648438 144.460938 C 36.765625 144.507813 37.707031 143.640625 37.757813 142.523438 C 37.769531 142.121094 37.675781 141.753906 37.480469 141.429688 C 37.152344 140.851563 36.535156 140.445313 35.820313 140.414063 L 20.972656 139.796875 L 20.964844 139.800781 L 15.425781 139.578125 L 14.625 139.195313 L 14.304688 139.03125 L 14.304688 139.039063 C 13.023438 138.214844 11.996094 137.140625 11.242188 135.835938 L 11.03125 135.441406 C 9.328125 131.707031 9.011719 127.726563 10.105469 123.613281 C 11.351563 118.882813 14.136719 115.234375 18.382813 112.78125 C 22.527344 110.390625 26.964844 109.777344 31.558594 110.960938 C 33.683594 111.71875 35.386719 113.167969 36.679688 115.269531 L 37.886719 121.238281 L 37.882813 121.246094 L 40.675781 134.902344 C 40.898438 136.003906 41.964844 136.699219 43.058594 136.480469 C 44.15625 136.253906 44.859375 135.1875 44.636719 134.089844 L 41.847656 120.4375 L 40.398438 113.238281 C 40.488281 112.597656 40.617188 112 40.796875 111.4375 L 40.8125 111.351563 C 41.3125 109.945313 42.050781 108.761719 43.015625 107.847656 C 43.839844 107.117188 44.742188 106.441406 45.703125 105.824219 C 49.871094 103.167969 54.265625 102.441406 58.75 103.675781 C 63.253906 104.90625 66.640625 107.757813 68.820313 112.148438 C 70.511719 115.574219 71.125 119.226563 70.671875 122.992188 C 70.480469 123.859375 70.195313 124.699219 69.8125 125.496094 L 69.789063 125.480469 L 69.679688 125.664063 C 69.378906 126.164063 69.007813 126.65625 68.570313 127.132813 L 51.84375 136.785156 C 50.882813 137.34375 50.550781 138.589844 51.105469 139.558594 M 61.773438 97.195313 C 56.492188 95.785156 51.316406 96.664063 46.394531 99.796875 C 41.855469 102.683594 38.652344 106.777344 36.855469 111.96875 C 34.300781 109.140625 31.117188 107.101563 27.382813 105.902344 C 22.035156 104.175781 16.960938 104.65625 12.324219 107.339844 C 7.691406 110.011719 4.75 114.152344 3.550781 119.65625 C 2.359375 125.152344 3.25 130.515625 6.195313 135.621094 C 7.113281 137.222656 8.164063 138.660156 9.304688 139.914063 C 10.007813 140.667969 10.753906 141.375 11.519531 142.015625 C 6.453125 145.164063 2.957031 149.511719 1.144531 154.949219 C -0.757813 160.648438 -0.285156 166.015625 2.535156 170.917969 C 5.367188 175.8125 9.78125 178.910156 15.667969 180.109375 C 21.5625 181.3125 27.351563 180.324219 32.847656 177.144531 L 32.851563 177.144531 C 33.386719 178.765625 34.128906 180.394531 35.050781 181.984375 C 38.148438 187.347656 42.515625 191.015625 48.019531 192.886719 C 53.535156 194.769531 58.710938 194.347656 63.421875 191.625 C 68.132813 188.90625 71.089844 184.628906 72.210938 178.910156 C 73.015625 174.886719 72.761719 170.882813 71.453125 167.03125 L 71.976563 166.734375 C 76.527344 167.199219 80.917969 166.332031 85.03125 164.140625 C 90.210938 161.371094 93.570313 157.242188 95.019531 151.875 C 96.347656 146.902344 95.710938 142.109375 93.136719 137.636719 C 92.910156 137.253906 92.671875 136.871094 92.421875 136.488281 C 89.277344 131.648438 84.683594 128.449219 78.777344 126.980469 C 77.144531 126.585938 75.507813 126.339844 73.929688 126.253906 C 74.273438 125.410156 74.582031 124.523438 74.847656 123.605469 C 76.53125 117.757813 76.097656 112.195313 73.554688 107.074219 C 71.019531 101.925781 67.054688 98.609375 61.773438 97.195313 "/>
</g>
<g clip-path="url(#clip3)" clip-rule="nonzero">
<path style=" stroke:none;fill-rule:nonzero;fill:rgb(33.699036%,60.398865%,74.099731%);fill-opacity:1;" d="M 149.527344 136.785156 L 132.804688 127.132813 C 132.367188 126.648438 131.992188 126.160156 131.695313 125.660156 L 131.582031 125.484375 L 131.5625 125.492188 C 131.175781 124.703125 130.898438 123.855469 130.703125 122.992188 C 130.253906 119.230469 130.859375 115.578125 132.558594 112.148438 C 134.734375 107.761719 138.117188 104.902344 142.621094 103.679688 C 147.105469 102.441406 151.5 103.171875 155.675781 105.824219 C 156.632813 106.4375 157.53125 107.117188 158.355469 107.847656 C 159.320313 108.769531 160.0625 109.9375 160.5625 111.355469 L 160.578125 111.429688 C 160.757813 112 160.890625 112.59375 160.980469 113.238281 L 159.527344 120.429688 L 156.738281 134.089844 C 156.515625 135.183594 157.21875 136.253906 158.316406 136.476563 C 159.40625 136.699219 160.472656 135.996094 160.699219 134.898438 L 163.492188 121.246094 L 163.484375 121.238281 L 164.695313 115.265625 C 165.984375 113.167969 167.695313 111.71875 169.8125 110.960938 C 174.410156 109.777344 178.84375 110.390625 182.992188 112.78125 C 187.234375 115.234375 190.019531 118.882813 191.269531 123.617188 C 192.363281 127.722656 192.042969 131.707031 190.34375 135.445313 L 190.132813 135.835938 C 189.378906 137.136719 188.347656 138.214844 187.074219 139.042969 L 187.074219 139.03125 L 186.753906 139.195313 L 185.945313 139.582031 L 180.410156 139.796875 L 180.398438 139.792969 L 165.5625 140.414063 C 164.839844 140.445313 164.21875 140.851563 163.890625 141.421875 C 163.699219 141.753906 163.601563 142.121094 163.621094 142.523438 C 163.664063 143.644531 164.605469 144.507813 165.722656 144.460938 L 180.566406 143.84375 L 185.261719 143.660156 C 185.914063 143.855469 186.546875 144.085938 187.179688 144.367188 L 187.328125 144.445313 C 188.230469 144.96875 189.027344 145.597656 189.722656 146.300781 C 191.070313 148.066406 192.074219 150.175781 192.691406 152.542969 C 193.890625 157.207031 193.265625 161.703125 190.839844 165.902344 C 188.40625 170.125 184.820313 172.921875 180.191406 174.207031 C 178.554688 174.652344 176.941406 174.875 175.378906 174.882813 C 174.414063 174.855469 173.480469 174.71875 172.605469 174.492188 C 171.101563 174.003906 169.722656 173.035156 168.472656 171.585938 L 166.679688 167.160156 L 166.675781 167.148438 L 160.328125 151.519531 C 159.90625 150.484375 158.730469 149.980469 157.6875 150.40625 C 157.261719 150.582031 156.917969 150.890625 156.695313 151.265625 C 156.398438 151.789063 156.335938 152.441406 156.578125 153.042969 L 162.910156 168.671875 L 162.921875 168.671875 L 164.011719 171.347656 C 164.164063 174.207031 163.636719 176.703125 162.433594 178.789063 C 161.660156 180.121094 160.601563 181.324219 159.269531 182.351563 C 157.710938 183.390625 155.957031 184.183594 154.035156 184.710938 C 149.335938 186.027344 144.828125 185.476563 140.640625 183.066406 C 136.53125 180.695313 133.8125 177.167969 132.570313 172.582031 C 132.15625 170.761719 132.285156 168.875 132.945313 166.988281 L 133.011719 166.882813 C 133.265625 166.277344 133.574219 165.710938 133.921875 165.148438 L 137.652344 162.171875 L 137.652344 162.167969 L 151.300781 151.324219 C 152.175781 150.632813 152.320313 149.359375 151.632813 148.480469 C 150.929688 147.601563 149.65625 147.457031 148.789063 148.160156 L 135.136719 159 L 135.125 159.003906 L 129.933594 163.144531 L 129.664063 163.21875 C 128.105469 163.449219 126.550781 163.320313 125.070313 162.847656 L 124.636719 162.699219 L 124.289063 162.554688 C 123.660156 162.316406 123.046875 162.046875 122.457031 161.726563 C 118.132813 159.433594 115.414063 155.875 114.382813 151.152344 C 113.339844 146.390625 114.261719 141.730469 117.132813 137.308594 C 118.625 134.996094 120.433594 133.054688 122.535156 131.53125 C 124.160156 130.515625 125.992188 129.945313 127.972656 129.835938 L 128.105469 129.851563 C 128.625 129.855469 129.171875 129.921875 129.757813 130.039063 L 129.832031 130.097656 L 147.5 140.292969 C 148.46875 140.851563 149.707031 140.523438 150.265625 139.558594 C 150.824219 138.589844 150.492188 137.339844 149.527344 136.785156 M 127.824219 107.070313 C 125.277344 112.203125 124.84375 117.757813 126.527344 123.601563 C 126.796875 124.519531 127.101563 125.410156 127.441406 126.257813 C 125.863281 126.34375 124.230469 126.582031 122.59375 126.980469 C 116.691406 128.445313 112.105469 131.648438 108.953125 136.488281 C 108.699219 136.867188 108.460938 137.253906 108.242188 137.636719 C 105.660156 142.113281 105.027344 146.902344 106.363281 151.878906 C 107.800781 157.242188 111.160156 161.371094 116.339844 164.140625 C 120.460938 166.328125 124.84375 167.199219 129.402344 166.738281 L 129.921875 167.03125 C 128.609375 170.886719 128.355469 174.886719 129.160156 178.910156 C 130.289063 184.625 133.238281 188.910156 137.949219 191.628906 C 142.660156 194.347656 147.84375 194.769531 153.359375 192.882813 C 158.859375 191.015625 163.226563 187.347656 166.324219 181.984375 C 167.242188 180.386719 167.988281 178.761719 168.523438 177.148438 L 168.527344 177.148438 C 174.027344 180.324219 179.808594 181.316406 185.703125 180.109375 C 191.589844 178.90625 196.003906 175.8125 198.835938 170.917969 C 201.660156 166.019531 202.128906 160.652344 200.226563 154.945313 C 198.421875 149.511719 194.925781 145.164063 189.851563 142.015625 C 190.617188 141.371094 191.363281 140.667969 192.066406 139.914063 C 193.210938 138.660156 194.257813 137.21875 195.179688 135.617188 C 198.121094 130.515625 199.011719 125.148438 197.820313 119.660156 C 196.628906 114.152344 193.683594 110.007813 189.050781 107.339844 C 184.410156 104.65625 179.339844 104.175781 173.988281 105.902344 C 170.253906 107.101563 167.070313 109.136719 164.515625 111.972656 C 162.71875 106.769531 159.519531 102.679688 154.980469 99.800781 C 150.054688 96.664063 144.882813 95.785156 139.605469 97.195313 C 134.316406 98.609375 130.351563 101.929688 127.824219 107.070313 "/>
</g>
</g>
</svg>
